<svg aria-roledescription="er" viewBox="0 0 641.8035888671875 898" style="max-width: 641.804px; background-color: white;" xmlns:xlink="http://www.w3.org/1999/xlink" xmlns="http://www.w3.org/2000/svg" width="100%" id="mermaid-0"><style>#mermaid-0{font-family:"trebuchet ms",verdana,arial,sans-serif;font-size:16px;fill:#000000;}#mermaid-0 .error-icon{fill:#552222;}#mermaid-0 .error-text{fill:#552222;stroke:#552222;}#mermaid-0 .edge-thickness-normal{stroke-width:2px;}#mermaid-0 .edge-thickness-thick{stroke-width:3.5px;}#mermaid-0 .edge-pattern-solid{stroke-dasharray:0;}#mermaid-0 .edge-pattern-dashed{stroke-dasharray:3;}#mermaid-0 .edge-pattern-dotted{stroke-dasharray:2;}#mermaid-0 .marker{fill:#000000;stroke:#000000;}#mermaid-0 .marker.cross{stroke:#000000;}#mermaid-0 svg{font-family:"trebuchet ms",verdana,arial,sans-serif;font-size:16px;}#mermaid-0 .entityBox{fill:#cde498;stroke:#13540c;}#mermaid-0 .attributeBoxOdd{fill:#ffffff;stroke:#13540c;}#mermaid-0 .attributeBoxEven{fill:#f2f2f2;stroke:#13540c;}#mermaid-0 .relationshipLabelBox{fill:hsl(78.1578947368, 58.4615384615%, 84.5098039216%);opacity:0.7;background-color:hsl(78.1578947368, 58.4615384615%, 84.5098039216%);}#mermaid-0 .relationshipLabelBox rect{opacity:0.5;}#mermaid-0 .relationshipLine{stroke:#000000;}#mermaid-0 .entityTitleText{text-anchor:middle;font-size:18px;fill:#000000;}#mermaid-0 :root{--mermaid-font-family:"trebuchet ms",verdana,arial,sans-serif;}</style><g/><defs><marker orient="auto" markerHeight="18" markerWidth="18" refY="9" refX="0" id="ONLY_ONE_START"><path d="M9,0 L9,18 M15,0 L15,18" fill="none" stroke="gray"/></marker></defs><defs><marker orient="auto" markerHeight="18" markerWidth="18" refY="9" refX="18" id="ONLY_ONE_END"><path d="M3,0 L3,18 M9,0 L9,18" fill="none" stroke="gray"/></marker></defs><defs><marker orient="auto" markerHeight="18" markerWidth="30" refY="9" refX="0" id="ZERO_OR_ONE_START"><circle r="6" cy="9" cx="21" fill="white" stroke="gray"/><path d="M9,0 L9,18" fill="none" stroke="gray"/></marker></defs><defs><marker orient="auto" markerHeight="18" markerWidth="30" refY="9" refX="30" id="ZERO_OR_ONE_END"><circle r="6" cy="9" cx="9" fill="white" stroke="gray"/><path d="M21,0 L21,18" fill="none" stroke="gray"/></marker></defs><defs><marker orient="auto" markerHeight="36" markerWidth="45" refY="18" refX="18" id="ONE_OR_MORE_START"><path d="M0,18 Q 18,0 36,18 Q 18,36 0,18 M42,9 L42,27" fill="none" stroke="gray"/></marker></defs><defs><marker orient="auto" markerHeight="36" markerWidth="45" refY="18" refX="27" id="ONE_OR_MORE_END"><path d="M3,9 L3,27 M9,18 Q27,0 45,18 Q27,36 9,18" fill="none" stroke="gray"/></marker></defs><defs><marker orient="auto" markerHeight="36" markerWidth="57" refY="18" refX="18" id="ZERO_OR_MORE_START"><circle r="6" cy="18" cx="48" fill="white" stroke="gray"/><path d="M0,18 Q18,0 36,18 Q18,36 0,18" fill="none" stroke="gray"/></marker></defs><defs><marker orient="auto" markerHeight="36" markerWidth="57" refY="18" refX="39" id="ZERO_OR_MORE_END"><circle r="6" cy="18" cx="9" fill="white" stroke="gray"/><path d="M21,18 Q39,0 57,18 Q39,36 21,18" fill="none" stroke="gray"/></marker></defs><path style="stroke: gray; fill: none;" marker-start="url(#ZERO_OR_MORE_START)" marker-end="url(#ZERO_OR_MORE_END)" d="M103.6562271118164,344L108.3437271118164,356C113.0312271118164,368,122.4062271118164,392,128.73489485846625,412.3333333333333C135.0635626051161,432.6666666666667,138.3458980984158,449.3333333333333,139.98706584506564,457.6666666666667L141.62823359171549,466" class="er relationshipLine"/><path style="stroke: gray; fill: none;" marker-start="url(#ZERO_OR_MORE_START)" marker-end="url(#ONLY_ONE_END)" d="M411.84420013427734,103.89933681450319L430.17076301574707,113.24944734541931C448.4973258972168,122.59955787633545,485.15045166015625,141.29977893816772,503.477014541626,158.9832228024172C521.8035774230957,176.66666666666666,521.8035774230957,193.33333333333334,521.8035774230957,201.66666666666666L521.8035774230957,210" class="er relationshipLine"/><path style="stroke: gray; fill: none;" marker-start="url(#ZERO_OR_MORE_START)" marker-end="url(#ONLY_ONE_END)" d="M303.53753421181125,110L297.60002952709533,118.33333333333333C291.66252484237936,126.66666666666667,279.7875154729475,143.33333333333334,273.8500107882316,173C267.9125061035156,202.66666666666666,267.9125061035156,245.33333333333334,267.9125061035156,288C267.9125061035156,330.6666666666667,267.9125061035156,373.3333333333333,261.9908250172933,403C256.069143931071,432.6666666666667,244.2257817586263,449.3333333333333,238.30410067240396,457.6666666666667L232.38241958618164,466" class="er relationshipLine"/><path style="stroke: gray; fill: none;" marker-start="url(#ZERO_OR_MORE_START)" marker-end="url(#ONLY_ONE_END)" d="M582.7410774230957,366L589.2514940897623,374.3333333333333C595.7619107564291,382.6666666666667,608.7827440897623,399.3333333333333,615.2931607564291,432.6666666666667C621.8035774230957,466,621.8035774230957,516,621.8035774230957,566C621.8035774230957,616,621.8035774230957,666,555.3618431091309,706.3394402378957C488.920108795166,746.6788804757913,356.0366401672363,777.3577609515828,289.5949058532715,792.6972011894785L223.15317153930664,808.0366414273742" class="er relationshipLine"/><path style="stroke: gray; fill: none;" marker-start="url(#ZERO_OR_MORE_START)" marker-end="url(#ZERO_OR_ONE_END)" d="M521.8035774230957,366L521.8035774230957,374.3333333333333C521.8035774230957,382.6666666666667,521.8035774230957,399.3333333333333,479.6870460510254,425.19178978618015C437.5705146789551,451.050246239027,353.33745193481445,486.10049247805387,311.22092056274414,503.62561559756733L269.1043891906738,521.1507387170808" class="er relationshipLine"/><path style="stroke: gray; fill: none;" marker-start="url(#ZERO_OR_MORE_START)" marker-end="url(#ONLY_ONE_END)" d="M460.8660774230957,366L454.355660756429,374.3333333333333C447.8452440897624,382.6666666666667,434.824410756429,399.3333333333333,428.3139940897624,432.6666666666667C421.8035774230957,466,421.8035774230957,516,421.8035774230957,566C421.8035774230957,616,421.8035774230957,666,421.8035774230957,703C421.8035774230957,740,421.8035774230957,764,421.8035774230957,776L421.8035774230957,788" class="er relationshipLine"/><path style="stroke: gray; fill: none;" marker-start="url(#ZERO_OR_MORE_START)" marker-end="url(#ONLY_ONE_END)" d="M232.38241958618164,666L238.30410067240396,674.3333333333334C244.2257817586263,682.6666666666666,256.069143931071,699.3333333333334,279.41245573271743,719.6666666666666C302.75576753436394,740,337.59902896521226,764,355.02065968063636,776L372.44229039606057,788" class="er relationshipLine"/><path style="stroke: gray; fill: none;" marker-start="url(#ZERO_OR_MORE_START)" marker-end="url(#ONLY_ONE_END)" d="M128.88864262898764,666L126.18584230211047,674.3333333333334C123.48304197523329,682.6666666666666,118.07744132147896,699.3333333333334,119.30545860466468,716C120.53347588785039,732.6666666666666,128.3951111079762,749.3333333333334,132.32592871803908,757.6666666666666L136.25674632810197,766" class="er relationshipLine"/><path style="stroke: gray; fill: none;" marker-start="url(#ZERO_OR_MORE_START)" marker-end="url(#ZERO_OR_MORE_END)" d="M74.96156692504883,466L67.76484362284343,457.6666666666667C60.56812032063802,449.3333333333333,46.17467371622721,432.6666666666667,43.66545041402181,412.3333333333333C41.156227111816406,392,50.531227111816406,368,55.218727111816406,356L59.906227111816406,344" class="er relationshipLine"/><g transform="translate(371.8035774230957,788 )" id="entity-Nature-026d611e-d51d-40da-843b-2a0f875ecb6b"><rect height="68" width="100" y="0" x="0" class="er entityBox"/><text style="dominant-baseline: middle; text-anchor: middle; font-size: 12px;" transform="translate(50,12)" y="0" x="0" id="text-entity-Nature-026d611e-d51d-40da-843b-2a0f875ecb6b" class="er entityLabel">Nature</text><rect height="22" width="38.90184020996094" y="24" x="0" class="er attributeBoxOdd"/><text style="dominant-baseline: middle; font-size: 10.2px;" transform="translate(5,35)" y="0" x="0" id="text-entity-Nature-026d611e-d51d-40da-843b-2a0f875ecb6b-attr-1-type" class="er entityLabel">Int</text><rect height="22" width="36.904693603515625" y="24" x="38.90184020996094" class="er attributeBoxOdd"/><text style="dominant-baseline: middle; font-size: 10.2px;" transform="translate(43.90184020996094,35)" y="0" x="0" id="text-entity-Nature-026d611e-d51d-40da-843b-2a0f875ecb6b-attr-1-name" class="er entityLabel">id</text><rect height="22" width="24.193466186523438" y="24" x="75.80653381347656" class="er attributeBoxOdd"/><text style="dominant-baseline: middle; font-size: 10.2px;" transform="translate(80.80653381347656,35)" y="0" x="0" id="text-entity-Nature-026d611e-d51d-40da-843b-2a0f875ecb6b-attr-1-key" class="er entityLabel">PK</text><rect height="22" width="38.90184020996094" y="46" x="0" class="er attributeBoxEven"/><text style="dominant-baseline: middle; font-size: 10.2px;" transform="translate(5,57)" y="0" x="0" id="text-entity-Nature-026d611e-d51d-40da-843b-2a0f875ecb6b-attr-2-type" class="er entityLabel">String</text><rect height="22" width="36.904693603515625" y="46" x="38.90184020996094" class="er attributeBoxEven"/><text style="dominant-baseline: middle; font-size: 10.2px;" transform="translate(43.90184020996094,57)" y="0" x="0" id="text-entity-Nature-026d611e-d51d-40da-843b-2a0f875ecb6b-attr-2-name" class="er entityLabel">name</text><rect height="22" width="24.193466186523438" y="46" x="75.80653381347656" class="er attributeBoxEven"/><text style="dominant-baseline: middle; font-size: 10.2px;" transform="translate(80.80653381347656,57)" y="0" x="0" id="text-entity-Nature-026d611e-d51d-40da-843b-2a0f875ecb6b-attr-2-key" class="er entityLabel"/></g><g transform="translate(102.19050979614258,766 )" id="entity-Machine-66077f58-89a5-437b-aeb9-293a6e3ba0a7"><rect height="112" width="120.96266174316406" y="0" x="0" class="er entityBox"/><text style="dominant-baseline: middle; text-anchor: middle; font-size: 12px;" transform="translate(60.48133087158203,12)" y="0" x="0" id="text-entity-Machine-66077f58-89a5-437b-aeb9-293a6e3ba0a7" class="er entityLabel">Machine</text><rect height="22" width="37.39605712890625" y="24" x="0" class="er attributeBoxOdd"/><text style="dominant-baseline: middle; font-size: 10.2px;" transform="translate(5,35)" y="0" x="0" id="text-entity-Machine-66077f58-89a5-437b-aeb9-293a6e3ba0a7-attr-1-type" class="er entityLabel">Int</text><rect height="22" width="60.87892150878906" y="24" x="37.39605712890625" class="er attributeBoxOdd"/><text style="dominant-baseline: middle; font-size: 10.2px;" transform="translate(42.39605712890625,35)" y="0" x="0" id="text-entity-Machine-66077f58-89a5-437b-aeb9-293a6e3ba0a7-attr-1-name" class="er entityLabel">id</text><rect height="22" width="22.68768310546875" y="24" x="98.27497863769531" class="er attributeBoxOdd"/><text style="dominant-baseline: middle; font-size: 10.2px;" transform="translate(103.27497863769531,35)" y="0" x="0" id="text-entity-Machine-66077f58-89a5-437b-aeb9-293a6e3ba0a7-attr-1-key" class="er entityLabel">PK</text><rect height="22" width="37.39605712890625" y="46" x="0" class="er attributeBoxEven"/><text style="dominant-baseline: middle; font-size: 10.2px;" transform="translate(5,57)" y="0" x="0" id="text-entity-Machine-66077f58-89a5-437b-aeb9-293a6e3ba0a7-attr-2-type" class="er entityLabel">String</text><rect height="22" width="60.87892150878906" y="46" x="37.39605712890625" class="er attributeBoxEven"/><text style="dominant-baseline: middle; font-size: 10.2px;" transform="translate(42.39605712890625,57)" y="0" x="0" id="text-entity-Machine-66077f58-89a5-437b-aeb9-293a6e3ba0a7-attr-2-name" class="er entityLabel">tag</text><rect height="22" width="22.68768310546875" y="46" x="98.27497863769531" class="er attributeBoxEven"/><text style="dominant-baseline: middle; font-size: 10.2px;" transform="translate(103.27497863769531,57)" y="0" x="0" id="text-entity-Machine-66077f58-89a5-437b-aeb9-293a6e3ba0a7-attr-2-key" class="er entityLabel"/><rect height="22" width="37.39605712890625" y="68" x="0" class="er attributeBoxOdd"/><text style="dominant-baseline: middle; font-size: 10.2px;" transform="translate(5,79)" y="0" x="0" id="text-entity-Machine-66077f58-89a5-437b-aeb9-293a6e3ba0a7-attr-3-type" class="er entityLabel">String</text><rect height="22" width="60.87892150878906" y="68" x="37.39605712890625" class="er attributeBoxOdd"/><text style="dominant-baseline: middle; font-size: 10.2px;" transform="translate(42.39605712890625,79)" y="0" x="0" id="text-entity-Machine-66077f58-89a5-437b-aeb9-293a6e3ba0a7-attr-3-name" class="er entityLabel">ute</text><rect height="22" width="22.68768310546875" y="68" x="98.27497863769531" class="er attributeBoxOdd"/><text style="dominant-baseline: middle; font-size: 10.2px;" transform="translate(103.27497863769531,79)" y="0" x="0" id="text-entity-Machine-66077f58-89a5-437b-aeb9-293a6e3ba0a7-attr-3-key" class="er entityLabel"/><rect height="22" width="37.39605712890625" y="90" x="0" class="er attributeBoxEven"/><text style="dominant-baseline: middle; font-size: 10.2px;" transform="translate(5,101)" y="0" x="0" id="text-entity-Machine-66077f58-89a5-437b-aeb9-293a6e3ba0a7-attr-4-type" class="er entityLabel">String</text><rect height="22" width="60.87892150878906" y="90" x="37.39605712890625" class="er attributeBoxEven"/><text style="dominant-baseline: middle; font-size: 10.2px;" transform="translate(42.39605712890625,101)" y="0" x="0" id="text-entity-Machine-66077f58-89a5-437b-aeb9-293a6e3ba0a7-attr-4-name" class="er entityLabel">technology</text><rect height="22" width="22.68768310546875" y="90" x="98.27497863769531" class="er attributeBoxEven"/><text style="dominant-baseline: middle; font-size: 10.2px;" transform="translate(103.27497863769531,101)" y="0" x="0" id="text-entity-Machine-66077f58-89a5-437b-aeb9-293a6e3ba0a7-attr-4-key" class="er entityLabel"/></g><g transform="translate(20,232 )" id="entity-Worker-27cbede2-4b47-4889-862a-63de6d222ed8"><rect height="112" width="123.56245422363281" y="0" x="0" class="er entityBox"/><text style="dominant-baseline: middle; text-anchor: middle; font-size: 12px;" transform="translate(61.781227111816406,12)" y="0" x="0" id="text-entity-Worker-27cbede2-4b47-4889-862a-63de6d222ed8" class="er entityLabel">Worker</text><rect height="22" width="37.39605712890625" y="24" x="0" class="er attributeBoxOdd"/><text style="dominant-baseline: middle; font-size: 10.2px;" transform="translate(5,35)" y="0" x="0" id="text-entity-Worker-27cbede2-4b47-4889-862a-63de6d222ed8-attr-1-type" class="er entityLabel">Int</text><rect height="22" width="63.47871398925781" y="24" x="37.39605712890625" class="er attributeBoxOdd"/><text style="dominant-baseline: middle; font-size: 10.2px;" transform="translate(42.39605712890625,35)" y="0" x="0" id="text-entity-Worker-27cbede2-4b47-4889-862a-63de6d222ed8-attr-1-name" class="er entityLabel">id</text><rect height="22" width="22.68768310546875" y="24" x="100.87477111816406" class="er attributeBoxOdd"/><text style="dominant-baseline: middle; font-size: 10.2px;" transform="translate(105.87477111816406,35)" y="0" x="0" id="text-entity-Worker-27cbede2-4b47-4889-862a-63de6d222ed8-attr-1-key" class="er entityLabel">PK</text><rect height="22" width="37.39605712890625" y="46" x="0" class="er attributeBoxEven"/><text style="dominant-baseline: middle; font-size: 10.2px;" transform="translate(5,57)" y="0" x="0" id="text-entity-Worker-27cbede2-4b47-4889-862a-63de6d222ed8-attr-2-type" class="er entityLabel">Int</text><rect height="22" width="63.47871398925781" y="46" x="37.39605712890625" class="er attributeBoxEven"/><text style="dominant-baseline: middle; font-size: 10.2px;" transform="translate(42.39605712890625,57)" y="0" x="0" id="text-entity-Worker-27cbede2-4b47-4889-862a-63de6d222ed8-attr-2-name" class="er entityLabel">registration</text><rect height="22" width="22.68768310546875" y="46" x="100.87477111816406" class="er attributeBoxEven"/><text style="dominant-baseline: middle; font-size: 10.2px;" transform="translate(105.87477111816406,57)" y="0" x="0" id="text-entity-Worker-27cbede2-4b47-4889-862a-63de6d222ed8-attr-2-key" class="er entityLabel"/><rect height="22" width="37.39605712890625" y="68" x="0" class="er attributeBoxOdd"/><text style="dominant-baseline: middle; font-size: 10.2px;" transform="translate(5,79)" y="0" x="0" id="text-entity-Worker-27cbede2-4b47-4889-862a-63de6d222ed8-attr-3-type" class="er entityLabel">String</text><rect height="22" width="63.47871398925781" y="68" x="37.39605712890625" class="er attributeBoxOdd"/><text style="dominant-baseline: middle; font-size: 10.2px;" transform="translate(42.39605712890625,79)" y="0" x="0" id="text-entity-Worker-27cbede2-4b47-4889-862a-63de6d222ed8-attr-3-name" class="er entityLabel">name</text><rect height="22" width="22.68768310546875" y="68" x="100.87477111816406" class="er attributeBoxOdd"/><text style="dominant-baseline: middle; font-size: 10.2px;" transform="translate(105.87477111816406,79)" y="0" x="0" id="text-entity-Worker-27cbede2-4b47-4889-862a-63de6d222ed8-attr-3-key" class="er entityLabel"/><rect height="22" width="37.39605712890625" y="90" x="0" class="er attributeBoxEven"/><text style="dominant-baseline: middle; font-size: 10.2px;" transform="translate(5,101)" y="0" x="0" id="text-entity-Worker-27cbede2-4b47-4889-862a-63de6d222ed8-attr-4-type" class="er entityLabel">String</text><rect height="22" width="63.47871398925781" y="90" x="37.39605712890625" class="er attributeBoxEven"/><text style="dominant-baseline: middle; font-size: 10.2px;" transform="translate(42.39605712890625,101)" y="0" x="0" id="text-entity-Worker-27cbede2-4b47-4889-862a-63de6d222ed8-attr-4-name" class="er entityLabel">class</text><rect height="22" width="22.68768310546875" y="90" x="100.87477111816406" class="er attributeBoxEven"/><text style="dominant-baseline: middle; font-size: 10.2px;" transform="translate(105.87477111816406,101)" y="0" x="0" id="text-entity-Worker-27cbede2-4b47-4889-862a-63de6d222ed8-attr-4-key" class="er entityLabel"/></g><g transform="translate(259.35591888427734,20 )" id="entity-PreventiveActionTaken-a549797c-0110-4b8d-ab20-c54d464a0530"><rect height="90" width="152.48828125" y="0" x="0" class="er entityBox"/><text style="dominant-baseline: middle; text-anchor: middle; font-size: 12px;" transform="translate(76.244140625,12)" y="0" x="0" id="text-entity-PreventiveActionTaken-a549797c-0110-4b8d-ab20-c54d464a0530" class="er entityLabel">PreventiveActionTaken</text><rect height="22" width="59.9576670328776" y="24" x="0" class="er attributeBoxOdd"/><text style="dominant-baseline: middle; font-size: 10.2px;" transform="translate(5,35)" y="0" x="0" id="text-entity-PreventiveActionTaken-a549797c-0110-4b8d-ab20-c54d464a0530-attr-1-type" class="er entityLabel">Int</text><rect height="22" width="63.980814615885414" y="24" x="59.9576670328776" class="er attributeBoxOdd"/><text style="dominant-baseline: middle; font-size: 10.2px;" transform="translate(64.9576670328776,35)" y="0" x="0" id="text-entity-PreventiveActionTaken-a549797c-0110-4b8d-ab20-c54d464a0530-attr-1-name" class="er entityLabel">id</text><rect height="22" width="28.54979960123698" y="24" x="123.93848164876302" class="er attributeBoxOdd"/><text style="dominant-baseline: middle; font-size: 10.2px;" transform="translate(128.938481648763,35)" y="0" x="0" id="text-entity-PreventiveActionTaken-a549797c-0110-4b8d-ab20-c54d464a0530-attr-1-key" class="er entityLabel">PK</text><rect height="22" width="59.9576670328776" y="46" x="0" class="er attributeBoxEven"/><text style="dominant-baseline: middle; font-size: 10.2px;" transform="translate(5,57)" y="0" x="0" id="text-entity-PreventiveActionTaken-a549797c-0110-4b8d-ab20-c54d464a0530-attr-2-type" class="er entityLabel">DateTime</text><rect height="22" width="63.980814615885414" y="46" x="59.9576670328776" class="er attributeBoxEven"/><text style="dominant-baseline: middle; font-size: 10.2px;" transform="translate(64.9576670328776,57)" y="0" x="0" id="text-entity-PreventiveActionTaken-a549797c-0110-4b8d-ab20-c54d464a0530-attr-2-name" class="er entityLabel">date</text><rect height="22" width="28.54979960123698" y="46" x="123.93848164876302" class="er attributeBoxEven"/><text style="dominant-baseline: middle; font-size: 10.2px;" transform="translate(128.938481648763,57)" y="0" x="0" id="text-entity-PreventiveActionTaken-a549797c-0110-4b8d-ab20-c54d464a0530-attr-2-key" class="er entityLabel"/><rect height="22" width="59.9576670328776" y="68" x="0" class="er attributeBoxOdd"/><text style="dominant-baseline: middle; font-size: 10.2px;" transform="translate(5,79)" y="0" x="0" id="text-entity-PreventiveActionTaken-a549797c-0110-4b8d-ab20-c54d464a0530-attr-3-type" class="er entityLabel">String</text><rect height="22" width="63.980814615885414" y="68" x="59.9576670328776" class="er attributeBoxOdd"/><text style="dominant-baseline: middle; font-size: 10.2px;" transform="translate(64.9576670328776,79)" y="0" x="0" id="text-entity-PreventiveActionTaken-a549797c-0110-4b8d-ab20-c54d464a0530-attr-3-name" class="er entityLabel">weekCode</text><rect height="22" width="28.54979960123698" y="68" x="123.93848164876302" class="er attributeBoxOdd"/><text style="dominant-baseline: middle; font-size: 10.2px;" transform="translate(128.938481648763,79)" y="0" x="0" id="text-entity-PreventiveActionTaken-a549797c-0110-4b8d-ab20-c54d464a0530-attr-3-key" class="er entityLabel"/></g><g transform="translate(449.396541595459,210 )" id="entity-PreventiveAction-5ed2a92b-7042-4be6-9750-ccd14ca5db98"><rect height="156" width="144.81407165527344" y="0" x="0" class="er entityBox"/><text style="dominant-baseline: middle; text-anchor: middle; font-size: 12px;" transform="translate(72.40703582763672,12)" y="0" x="0" id="text-entity-PreventiveAction-5ed2a92b-7042-4be6-9750-ccd14ca5db98" class="er entityLabel">PreventiveAction</text><rect height="22" width="46.649749755859375" y="24" x="0" class="er attributeBoxOdd"/><text style="dominant-baseline: middle; font-size: 10.2px;" transform="translate(5,35)" y="0" x="0" id="text-entity-PreventiveAction-5ed2a92b-7042-4be6-9750-ccd14ca5db98-attr-1-type" class="er entityLabel">Int</text><rect height="22" width="75.47663879394531" y="24" x="46.649749755859375" class="er attributeBoxOdd"/><text style="dominant-baseline: middle; font-size: 10.2px;" transform="translate(51.649749755859375,35)" y="0" x="0" id="text-entity-PreventiveAction-5ed2a92b-7042-4be6-9750-ccd14ca5db98-attr-1-name" class="er entityLabel">id</text><rect height="22" width="22.68768310546875" y="24" x="122.12638854980469" class="er attributeBoxOdd"/><text style="dominant-baseline: middle; font-size: 10.2px;" transform="translate(127.12638854980469,35)" y="0" x="0" id="text-entity-PreventiveAction-5ed2a92b-7042-4be6-9750-ccd14ca5db98-attr-1-key" class="er entityLabel">PK</text><rect height="22" width="46.649749755859375" y="46" x="0" class="er attributeBoxEven"/><text style="dominant-baseline: middle; font-size: 10.2px;" transform="translate(5,57)" y="0" x="0" id="text-entity-PreventiveAction-5ed2a92b-7042-4be6-9750-ccd14ca5db98-attr-2-type" class="er entityLabel">String</text><rect height="22" width="75.47663879394531" y="46" x="46.649749755859375" class="er attributeBoxEven"/><text style="dominant-baseline: middle; font-size: 10.2px;" transform="translate(51.649749755859375,57)" y="0" x="0" id="text-entity-PreventiveAction-5ed2a92b-7042-4be6-9750-ccd14ca5db98-attr-2-name" class="er entityLabel">description</text><rect height="22" width="22.68768310546875" y="46" x="122.12638854980469" class="er attributeBoxEven"/><text style="dominant-baseline: middle; font-size: 10.2px;" transform="translate(127.12638854980469,57)" y="0" x="0" id="text-entity-PreventiveAction-5ed2a92b-7042-4be6-9750-ccd14ca5db98-attr-2-key" class="er entityLabel"/><rect height="22" width="46.649749755859375" y="68" x="0" class="er attributeBoxOdd"/><text style="dominant-baseline: middle; font-size: 10.2px;" transform="translate(5,79)" y="0" x="0" id="text-entity-PreventiveAction-5ed2a92b-7042-4be6-9750-ccd14ca5db98-attr-3-type" class="er entityLabel">String</text><rect height="22" width="75.47663879394531" y="68" x="46.649749755859375" class="er attributeBoxOdd"/><text style="dominant-baseline: middle; font-size: 10.2px;" transform="translate(51.649749755859375,79)" y="0" x="0" id="text-entity-PreventiveAction-5ed2a92b-7042-4be6-9750-ccd14ca5db98-attr-3-name" class="er entityLabel">excution</text><rect height="22" width="22.68768310546875" y="68" x="122.12638854980469" class="er attributeBoxOdd"/><text style="dominant-baseline: middle; font-size: 10.2px;" transform="translate(127.12638854980469,79)" y="0" x="0" id="text-entity-PreventiveAction-5ed2a92b-7042-4be6-9750-ccd14ca5db98-attr-3-key" class="er entityLabel"/><rect height="22" width="46.649749755859375" y="90" x="0" class="er attributeBoxEven"/><text style="dominant-baseline: middle; font-size: 10.2px;" transform="translate(5,101)" y="0" x="0" id="text-entity-PreventiveAction-5ed2a92b-7042-4be6-9750-ccd14ca5db98-attr-4-type" class="er entityLabel">Int</text><rect height="22" width="75.47663879394531" y="90" x="46.649749755859375" class="er attributeBoxEven"/><text style="dominant-baseline: middle; font-size: 10.2px;" transform="translate(51.649749755859375,101)" y="0" x="0" id="text-entity-PreventiveAction-5ed2a92b-7042-4be6-9750-ccd14ca5db98-attr-4-name" class="er entityLabel">frequency</text><rect height="22" width="22.68768310546875" y="90" x="122.12638854980469" class="er attributeBoxEven"/><text style="dominant-baseline: middle; font-size: 10.2px;" transform="translate(127.12638854980469,101)" y="0" x="0" id="text-entity-PreventiveAction-5ed2a92b-7042-4be6-9750-ccd14ca5db98-attr-4-key" class="er entityLabel"/><rect height="22" width="46.649749755859375" y="112" x="0" class="er attributeBoxOdd"/><text style="dominant-baseline: middle; font-size: 10.2px;" transform="translate(5,123)" y="0" x="0" id="text-entity-PreventiveAction-5ed2a92b-7042-4be6-9750-ccd14ca5db98-attr-5-type" class="er entityLabel">String</text><rect height="22" width="75.47663879394531" y="112" x="46.649749755859375" class="er attributeBoxOdd"/><text style="dominant-baseline: middle; font-size: 10.2px;" transform="translate(51.649749755859375,123)" y="0" x="0" id="text-entity-PreventiveAction-5ed2a92b-7042-4be6-9750-ccd14ca5db98-attr-5-name" class="er entityLabel">nextExecution</text><rect height="22" width="22.68768310546875" y="112" x="122.12638854980469" class="er attributeBoxOdd"/><text style="dominant-baseline: middle; font-size: 10.2px;" transform="translate(127.12638854980469,123)" y="0" x="0" id="text-entity-PreventiveAction-5ed2a92b-7042-4be6-9750-ccd14ca5db98-attr-5-key" class="er entityLabel"/><rect height="22" width="46.649749755859375" y="134" x="0" class="er attributeBoxEven"/><text style="dominant-baseline: middle; font-size: 10.2px;" transform="translate(5,145)" y="0" x="0" id="text-entity-PreventiveAction-5ed2a92b-7042-4be6-9750-ccd14ca5db98-attr-6-type" class="er entityLabel">Boolean</text><rect height="22" width="75.47663879394531" y="134" x="46.649749755859375" class="er attributeBoxEven"/><text style="dominant-baseline: middle; font-size: 10.2px;" transform="translate(51.649749755859375,145)" y="0" x="0" id="text-entity-PreventiveAction-5ed2a92b-7042-4be6-9750-ccd14ca5db98-attr-6-name" class="er entityLabel">ignore</text><rect height="22" width="22.68768310546875" y="134" x="122.12638854980469" class="er attributeBoxEven"/><text style="dominant-baseline: middle; font-size: 10.2px;" transform="translate(127.12638854980469,145)" y="0" x="0" id="text-entity-PreventiveAction-5ed2a92b-7042-4be6-9750-ccd14ca5db98-attr-6-key" class="er entityLabel"/></g><g transform="translate(53.540103912353516,466 )" id="entity-PreventiveOS-04edfd11-010b-4ef6-8fc1-12d2e36713fe"><rect height="200" width="215.5642852783203" y="0" x="0" class="er entityBox"/><text style="dominant-baseline: middle; text-anchor: middle; font-size: 12px;" transform="translate(107.78214263916016,12)" y="0" x="0" id="text-entity-PreventiveOS-04edfd11-010b-4ef6-8fc1-12d2e36713fe" class="er entityLabel">PreventiveOS</text><rect height="22" width="54.095550537109375" y="24" x="0" class="er attributeBoxOdd"/><text style="dominant-baseline: middle; font-size: 10.2px;" transform="translate(5,35)" y="0" x="0" id="text-entity-PreventiveOS-04edfd11-010b-4ef6-8fc1-12d2e36713fe-attr-1-type" class="er entityLabel">Int</text><rect height="22" width="91.56851196289062" y="24" x="54.095550537109375" class="er attributeBoxOdd"/><text style="dominant-baseline: middle; font-size: 10.2px;" transform="translate(59.095550537109375,35)" y="0" x="0" id="text-entity-PreventiveOS-04edfd11-010b-4ef6-8fc1-12d2e36713fe-attr-1-name" class="er entityLabel">id</text><rect height="22" width="22.68768310546875" y="24" x="145.6640625" class="er attributeBoxOdd"/><text style="dominant-baseline: middle; font-size: 10.2px;" transform="translate(150.6640625,35)" y="0" x="0" id="text-entity-PreventiveOS-04edfd11-010b-4ef6-8fc1-12d2e36713fe-attr-1-key" class="er entityLabel">PK</text><rect height="22" width="47.21253967285156" y="24" x="168.35174560546875" class="er attributeBoxOdd"/><text style="dominant-baseline: middle; font-size: 10.2px;" transform="translate(173.35174560546875,35)" y="0" x="0" id="text-entity-PreventiveOS-04edfd11-010b-4ef6-8fc1-12d2e36713fe-attr-1-comment" class="er entityLabel"/><rect height="22" width="54.095550537109375" y="46" x="0" class="er attributeBoxEven"/><text style="dominant-baseline: middle; font-size: 10.2px;" transform="translate(5,57)" y="0" x="0" id="text-entity-PreventiveOS-04edfd11-010b-4ef6-8fc1-12d2e36713fe-attr-2-type" class="er entityLabel">String</text><rect height="22" width="91.56851196289062" y="46" x="54.095550537109375" class="er attributeBoxEven"/><text style="dominant-baseline: middle; font-size: 10.2px;" transform="translate(59.095550537109375,57)" y="0" x="0" id="text-entity-PreventiveOS-04edfd11-010b-4ef6-8fc1-12d2e36713fe-attr-2-name" class="er entityLabel">weekCode</text><rect height="22" width="22.68768310546875" y="46" x="145.6640625" class="er attributeBoxEven"/><text style="dominant-baseline: middle; font-size: 10.2px;" transform="translate(150.6640625,57)" y="0" x="0" id="text-entity-PreventiveOS-04edfd11-010b-4ef6-8fc1-12d2e36713fe-attr-2-key" class="er entityLabel"/><rect height="22" width="47.21253967285156" y="46" x="168.35174560546875" class="er attributeBoxEven"/><text style="dominant-baseline: middle; font-size: 10.2px;" transform="translate(173.35174560546875,57)" y="0" x="0" id="text-entity-PreventiveOS-04edfd11-010b-4ef6-8fc1-12d2e36713fe-attr-2-comment" class="er entityLabel"/><rect height="22" width="54.095550537109375" y="68" x="0" class="er attributeBoxOdd"/><text style="dominant-baseline: middle; font-size: 10.2px;" transform="translate(5,79)" y="0" x="0" id="text-entity-PreventiveOS-04edfd11-010b-4ef6-8fc1-12d2e36713fe-attr-3-type" class="er entityLabel">DateTime</text><rect height="22" width="91.56851196289062" y="68" x="54.095550537109375" class="er attributeBoxOdd"/><text style="dominant-baseline: middle; font-size: 10.2px;" transform="translate(59.095550537109375,79)" y="0" x="0" id="text-entity-PreventiveOS-04edfd11-010b-4ef6-8fc1-12d2e36713fe-attr-3-name" class="er entityLabel">date</text><rect height="22" width="22.68768310546875" y="68" x="145.6640625" class="er attributeBoxOdd"/><text style="dominant-baseline: middle; font-size: 10.2px;" transform="translate(150.6640625,79)" y="0" x="0" id="text-entity-PreventiveOS-04edfd11-010b-4ef6-8fc1-12d2e36713fe-attr-3-key" class="er entityLabel"/><rect height="22" width="47.21253967285156" y="68" x="168.35174560546875" class="er attributeBoxOdd"/><text style="dominant-baseline: middle; font-size: 10.2px;" transform="translate(173.35174560546875,79)" y="0" x="0" id="text-entity-PreventiveOS-04edfd11-010b-4ef6-8fc1-12d2e36713fe-attr-3-comment" class="er entityLabel">nullable</text><rect height="22" width="54.095550537109375" y="90" x="0" class="er attributeBoxEven"/><text style="dominant-baseline: middle; font-size: 10.2px;" transform="translate(5,101)" y="0" x="0" id="text-entity-PreventiveOS-04edfd11-010b-4ef6-8fc1-12d2e36713fe-attr-4-type" class="er entityLabel">String</text><rect height="22" width="91.56851196289062" y="90" x="54.095550537109375" class="er attributeBoxEven"/><text style="dominant-baseline: middle; font-size: 10.2px;" transform="translate(59.095550537109375,101)" y="0" x="0" id="text-entity-PreventiveOS-04edfd11-010b-4ef6-8fc1-12d2e36713fe-attr-4-name" class="er entityLabel">actionsUniqueKey</text><rect height="22" width="22.68768310546875" y="90" x="145.6640625" class="er attributeBoxEven"/><text style="dominant-baseline: middle; font-size: 10.2px;" transform="translate(150.6640625,101)" y="0" x="0" id="text-entity-PreventiveOS-04edfd11-010b-4ef6-8fc1-12d2e36713fe-attr-4-key" class="er entityLabel"/><rect height="22" width="47.21253967285156" y="90" x="168.35174560546875" class="er attributeBoxEven"/><text style="dominant-baseline: middle; font-size: 10.2px;" transform="translate(173.35174560546875,101)" y="0" x="0" id="text-entity-PreventiveOS-04edfd11-010b-4ef6-8fc1-12d2e36713fe-attr-4-comment" class="er entityLabel"/><rect height="22" width="54.095550537109375" y="112" x="0" class="er attributeBoxOdd"/><text style="dominant-baseline: middle; font-size: 10.2px;" transform="translate(5,123)" y="0" x="0" id="text-entity-PreventiveOS-04edfd11-010b-4ef6-8fc1-12d2e36713fe-attr-5-type" class="er entityLabel">Int</text><rect height="22" width="91.56851196289062" y="112" x="54.095550537109375" class="er attributeBoxOdd"/><text style="dominant-baseline: middle; font-size: 10.2px;" transform="translate(59.095550537109375,123)" y="0" x="0" id="text-entity-PreventiveOS-04edfd11-010b-4ef6-8fc1-12d2e36713fe-attr-5-name" class="er entityLabel">duration</text><rect height="22" width="22.68768310546875" y="112" x="145.6640625" class="er attributeBoxOdd"/><text style="dominant-baseline: middle; font-size: 10.2px;" transform="translate(150.6640625,123)" y="0" x="0" id="text-entity-PreventiveOS-04edfd11-010b-4ef6-8fc1-12d2e36713fe-attr-5-key" class="er entityLabel"/><rect height="22" width="47.21253967285156" y="112" x="168.35174560546875" class="er attributeBoxOdd"/><text style="dominant-baseline: middle; font-size: 10.2px;" transform="translate(173.35174560546875,123)" y="0" x="0" id="text-entity-PreventiveOS-04edfd11-010b-4ef6-8fc1-12d2e36713fe-attr-5-comment" class="er entityLabel">nullable</text><rect height="22" width="54.095550537109375" y="134" x="0" class="er attributeBoxEven"/><text style="dominant-baseline: middle; font-size: 10.2px;" transform="translate(5,145)" y="0" x="0" id="text-entity-PreventiveOS-04edfd11-010b-4ef6-8fc1-12d2e36713fe-attr-6-type" class="er entityLabel">Boolean</text><rect height="22" width="91.56851196289062" y="134" x="54.095550537109375" class="er attributeBoxEven"/><text style="dominant-baseline: middle; font-size: 10.2px;" transform="translate(59.095550537109375,145)" y="0" x="0" id="text-entity-PreventiveOS-04edfd11-010b-4ef6-8fc1-12d2e36713fe-attr-6-name" class="er entityLabel">concluded</text><rect height="22" width="22.68768310546875" y="134" x="145.6640625" class="er attributeBoxEven"/><text style="dominant-baseline: middle; font-size: 10.2px;" transform="translate(150.6640625,145)" y="0" x="0" id="text-entity-PreventiveOS-04edfd11-010b-4ef6-8fc1-12d2e36713fe-attr-6-key" class="er entityLabel"/><rect height="22" width="47.21253967285156" y="134" x="168.35174560546875" class="er attributeBoxEven"/><text style="dominant-baseline: middle; font-size: 10.2px;" transform="translate(173.35174560546875,145)" y="0" x="0" id="text-entity-PreventiveOS-04edfd11-010b-4ef6-8fc1-12d2e36713fe-attr-6-comment" class="er entityLabel">nullable</text><rect height="22" width="54.095550537109375" y="156" x="0" class="er attributeBoxOdd"/><text style="dominant-baseline: middle; font-size: 10.2px;" transform="translate(5,167)" y="0" x="0" id="text-entity-PreventiveOS-04edfd11-010b-4ef6-8fc1-12d2e36713fe-attr-7-type" class="er entityLabel">DateTime</text><rect height="22" width="91.56851196289062" y="156" x="54.095550537109375" class="er attributeBoxOdd"/><text style="dominant-baseline: middle; font-size: 10.2px;" transform="translate(59.095550537109375,167)" y="0" x="0" id="text-entity-PreventiveOS-04edfd11-010b-4ef6-8fc1-12d2e36713fe-attr-7-name" class="er entityLabel">startTime</text><rect height="22" width="22.68768310546875" y="156" x="145.6640625" class="er attributeBoxOdd"/><text style="dominant-baseline: middle; font-size: 10.2px;" transform="translate(150.6640625,167)" y="0" x="0" id="text-entity-PreventiveOS-04edfd11-010b-4ef6-8fc1-12d2e36713fe-attr-7-key" class="er entityLabel"/><rect height="22" width="47.21253967285156" y="156" x="168.35174560546875" class="er attributeBoxOdd"/><text style="dominant-baseline: middle; font-size: 10.2px;" transform="translate(173.35174560546875,167)" y="0" x="0" id="text-entity-PreventiveOS-04edfd11-010b-4ef6-8fc1-12d2e36713fe-attr-7-comment" class="er entityLabel">nullable</text><rect height="22" width="54.095550537109375" y="178" x="0" class="er attributeBoxEven"/><text style="dominant-baseline: middle; font-size: 10.2px;" transform="translate(5,189)" y="0" x="0" id="text-entity-PreventiveOS-04edfd11-010b-4ef6-8fc1-12d2e36713fe-attr-8-type" class="er entityLabel">DateTime</text><rect height="22" width="91.56851196289062" y="178" x="54.095550537109375" class="er attributeBoxEven"/><text style="dominant-baseline: middle; font-size: 10.2px;" transform="translate(59.095550537109375,189)" y="0" x="0" id="text-entity-PreventiveOS-04edfd11-010b-4ef6-8fc1-12d2e36713fe-attr-8-name" class="er entityLabel">finishTime</text><rect height="22" width="22.68768310546875" y="178" x="145.6640625" class="er attributeBoxEven"/><text style="dominant-baseline: middle; font-size: 10.2px;" transform="translate(150.6640625,189)" y="0" x="0" id="text-entity-PreventiveOS-04edfd11-010b-4ef6-8fc1-12d2e36713fe-attr-8-key" class="er entityLabel"/><rect height="22" width="47.21253967285156" y="178" x="168.35174560546875" class="er attributeBoxEven"/><text style="dominant-baseline: middle; font-size: 10.2px;" transform="translate(173.35174560546875,189)" y="0" x="0" id="text-entity-PreventiveOS-04edfd11-010b-4ef6-8fc1-12d2e36713fe-attr-8-comment" class="er entityLabel">nullable</text></g><rect height="0" width="0" y="403.9691162109375" x="126.0348892211914" class="er relationshipLabelBox"/><text style="text-anchor: middle; dominant-baseline: middle; font-size: 12px;" y="403.9691162109375" x="126.0348892211914" id="rel1" class="er relationshipLabel"/><rect height="14" width="33.865234375" y="136.3330841064453" x="466.47991943359375" class="er relationshipLabelBox"/><text style="text-anchor: middle; dominant-baseline: middle; font-size: 12px;" y="143.3330841064453" x="483.41253662109375" id="rel2" class="er relationshipLabel">action</text><rect height="14" width="11.439453125" y="280.98095703125" x="262.1927795410156" class="er relationshipLabelBox"/><text style="text-anchor: middle; dominant-baseline: middle; font-size: 12px;" y="287.98095703125" x="267.9125061035156" id="rel3" class="er relationshipLabel">os</text><rect height="14" width="45.7421875" y="692.4970703125" x="543.0045776367188" class="er relationshipLabelBox"/><text style="text-anchor: middle; dominant-baseline: middle; font-size: 12px;" y="699.4970703125" x="565.8756713867188" id="rel4" class="er relationshipLabel">machine</text><rect height="14" width="71.00390625" y="453.39019775390625" x="375.6505432128906" class="er relationshipLabelBox"/><text style="text-anchor: middle; dominant-baseline: middle; font-size: 12px;" y="460.39019775390625" x="411.1524963378906" id="rel5" class="er relationshipLabel">PreventiveOS</text><rect height="14" width="35.83984375" y="565.6029052734375" x="403.8836669921875" class="er relationshipLabelBox"/><text style="text-anchor: middle; dominant-baseline: middle; font-size: 12px;" y="572.6029052734375" x="421.8035888671875" id="rel6" class="er relationshipLabel">nature</text><rect height="14" width="35.83984375" y="726.6030883789062" x="278.45391845703125" class="er relationshipLabelBox"/><text style="text-anchor: middle; dominant-baseline: middle; font-size: 12px;" y="733.6030883789062" x="296.37384033203125" id="rel7" class="er relationshipLabel">nature</text><rect height="14" width="45.7421875" y="709.9228515625" x="96.50934600830078" class="er relationshipLabelBox"/><text style="text-anchor: middle; dominant-baseline: middle; font-size: 12px;" y="716.9228515625" x="119.38043975830078" id="rel8" class="er relationshipLabel">machine</text><rect height="0" width="0" y="408.43487548828125" x="43.32783508300781" class="er relationshipLabelBox"/><text style="text-anchor: middle; dominant-baseline: middle; font-size: 12px;" y="408.43487548828125" x="43.32783508300781" id="rel9" class="er relationshipLabel"/></svg>