<svg aria-roledescription="er" viewBox="0 0 682.5255737304688 854" style="max-width: 682.526px; background-color: white;" xmlns:xlink="http://www.w3.org/1999/xlink" xmlns="http://www.w3.org/2000/svg" width="100%" id="mermaid-0"><style>#mermaid-0{font-family:"trebuchet ms",verdana,arial,sans-serif;font-size:16px;fill:#000000;}#mermaid-0 .error-icon{fill:#552222;}#mermaid-0 .error-text{fill:#552222;stroke:#552222;}#mermaid-0 .edge-thickness-normal{stroke-width:2px;}#mermaid-0 .edge-thickness-thick{stroke-width:3.5px;}#mermaid-0 .edge-pattern-solid{stroke-dasharray:0;}#mermaid-0 .edge-pattern-dashed{stroke-dasharray:3;}#mermaid-0 .edge-pattern-dotted{stroke-dasharray:2;}#mermaid-0 .marker{fill:#000000;stroke:#000000;}#mermaid-0 .marker.cross{stroke:#000000;}#mermaid-0 svg{font-family:"trebuchet ms",verdana,arial,sans-serif;font-size:16px;}#mermaid-0 .entityBox{fill:#cde498;stroke:#13540c;}#mermaid-0 .attributeBoxOdd{fill:#ffffff;stroke:#13540c;}#mermaid-0 .attributeBoxEven{fill:#f2f2f2;stroke:#13540c;}#mermaid-0 .relationshipLabelBox{fill:hsl(78.1578947368, 58.4615384615%, 84.5098039216%);opacity:0.7;background-color:hsl(78.1578947368, 58.4615384615%, 84.5098039216%);}#mermaid-0 .relationshipLabelBox rect{opacity:0.5;}#mermaid-0 .relationshipLine{stroke:#000000;}#mermaid-0 .entityTitleText{text-anchor:middle;font-size:18px;fill:#000000;}#mermaid-0 :root{--mermaid-font-family:"trebuchet ms",verdana,arial,sans-serif;}</style><g/><defs><marker orient="auto" markerHeight="18" markerWidth="18" refY="9" refX="0" id="ONLY_ONE_START"><path d="M9,0 L9,18 M15,0 L15,18" fill="none" stroke="gray"/></marker></defs><defs><marker orient="auto" markerHeight="18" markerWidth="18" refY="9" refX="18" id="ONLY_ONE_END"><path d="M3,0 L3,18 M9,0 L9,18" fill="none" stroke="gray"/></marker></defs><defs><marker orient="auto" markerHeight="18" markerWidth="30" refY="9" refX="0" id="ZERO_OR_ONE_START"><circle r="6" cy="9" cx="21" fill="white" stroke="gray"/><path d="M9,0 L9,18" fill="none" stroke="gray"/></marker></defs><defs><marker orient="auto" markerHeight="18" markerWidth="30" refY="9" refX="30" id="ZERO_OR_ONE_END"><circle r="6" cy="9" cx="9" fill="white" stroke="gray"/><path d="M21,0 L21,18" fill="none" stroke="gray"/></marker></defs><defs><marker orient="auto" markerHeight="36" markerWidth="45" refY="18" refX="18" id="ONE_OR_MORE_START"><path d="M0,18 Q 18,0 36,18 Q 18,36 0,18 M42,9 L42,27" fill="none" stroke="gray"/></marker></defs><defs><marker orient="auto" markerHeight="36" markerWidth="45" refY="18" refX="27" id="ONE_OR_MORE_END"><path d="M3,9 L3,27 M9,18 Q27,0 45,18 Q27,36 9,18" fill="none" stroke="gray"/></marker></defs><defs><marker orient="auto" markerHeight="36" markerWidth="57" refY="18" refX="18" id="ZERO_OR_MORE_START"><circle r="6" cy="18" cx="48" fill="white" stroke="gray"/><path d="M0,18 Q18,0 36,18 Q18,36 0,18" fill="none" stroke="gray"/></marker></defs><defs><marker orient="auto" markerHeight="36" markerWidth="57" refY="18" refX="39" id="ZERO_OR_MORE_END"><circle r="6" cy="18" cx="9" fill="white" stroke="gray"/><path d="M21,18 Q39,0 57,18 Q39,36 21,18" fill="none" stroke="gray"/></marker></defs><path style="stroke: gray; fill: none;" marker-start="url(#ZERO_OR_MORE_START)" marker-end="url(#ONLY_ONE_END)" d="M247.64699594598068,110L239.62557635390968,118.33333333333333C231.60415676183868,126.66666666666667,215.5613175776967,143.33333333333334,207.5398979856257,160C199.5184783935547,176.66666666666666,199.5184783935547,193.33333333333334,199.5184783935547,201.66666666666666L199.5184783935547,210" class="er relationshipLine"/><path style="stroke: gray; fill: none;" marker-start="url(#ZERO_OR_MORE_START)" marker-end="url(#ONLY_ONE_END)" d="M367.20680236816406,104.1833357419311L385.30843289693195,113.48611311827592C403.4100634256999,122.78889049462073,439.61332448323566,141.39444524731036,457.7149550120036,172.03055595698854C475.8165855407715,202.66666666666666,475.8165855407715,245.33333333333334,475.8165855407715,288C475.8165855407715,330.6666666666667,475.8165855407715,373.3333333333333,477.30930812160176,403C478.802030702432,432.6666666666667,481.7874758640925,449.3333333333333,483.28019844492275,457.6666666666667L484.772921025753,466" class="er relationshipLine"/><path style="stroke: gray; fill: none;" marker-start="url(#ZERO_OR_MORE_START)" marker-end="url(#ONLY_ONE_END)" d="M127.11144256591797,365.85889345363165L119.33975728352864,374.21574454469305C111.56807200113933,382.57259563575445,96.02470143636067,399.28629781787726,88.25301615397136,428.97648224227197C80.48133087158203,458.6666666666667,80.48133087158203,501.3333333333333,80.48133087158203,544C80.48133087158203,586.6666666666666,80.48133087158203,629.3333333333334,80.48133087158203,659C80.48133087158203,688.6666666666666,80.48133087158203,705.3333333333334,80.48133087158203,713.6666666666666L80.48133087158203,722" class="er relationshipLine"/><path style="stroke: gray; fill: none;" marker-start="url(#ZERO_OR_MORE_START)" marker-end="url(#ZERO_OR_ONE_END)" d="M271.9255142211914,311.2151538678795L326.39539591471356,328.6792948898996C380.86527760823566,346.14343591191965,489.80504099527997,381.07171795595985,537.7645060221354,406.86919231131327C585.7239710489908,432.6666666666667,572.7031377156576,449.3333333333333,566.1927210489908,457.6666666666667L559.6823043823242,466" class="er relationshipLine"/><path style="stroke: gray; fill: none;" marker-start="url(#ZERO_OR_MORE_START)" marker-end="url(#ONLY_ONE_END)" d="M252.04874712228775,366L257.660955319802,374.3333333333333C263.27316351731616,382.6666666666667,274.49757991234463,399.3333333333333,280.1097881098588,429C285.72199630737305,458.6666666666667,285.72199630737305,501.3333333333333,285.72199630737305,544C285.72199630737305,586.6666666666666,285.72199630737305,629.3333333333334,291.97565654538715,662.6666666666666C298.2293167834012,696,310.73663725942936,720,316.99029749744346,732L323.2439577354575,744" class="er relationshipLine"/><path style="stroke: gray; fill: none;" marker-start="url(#ZERO_OR_MORE_START)" marker-end="url(#ONLY_ONE_END)" d="M465.9049327969551,622L462.39639950791997,630.3333333333334C458.88786621888477,638.6666666666666,451.8707996408145,655.3333333333334,436.6010129948457,675.6666666666666C421.33122634887695,696,397.80871963500977,720,386.0474662780762,732L374.2862129211426,744" class="er relationshipLine"/><path style="stroke: gray; fill: none;" marker-start="url(#ZERO_OR_MORE_START)" marker-end="url(#ONLY_ONE_END)" d="M390.96266174316406,588.0738307302805L356.7558841705322,602.0615256085671C322.5491065979004,616.0492204868536,254.13555145263672,644.0246102434268,211.65513666021,666.3456384550467C169.17472186778326,688.6666666666666,152.62744742819348,705.3333333333334,144.35381020839858,713.6666666666666L136.0801729886037,722" class="er relationshipLine"/><path style="stroke: gray; fill: none;" marker-start="url(#ZERO_OR_MORE_START)" marker-end="url(#ZERO_OR_ONE_END)" d="M560.9007754325867,622L567.5413706302643,630.3333333333334C574.1819658279419,638.6666666666666,587.4631562232971,655.3333333333334,594.1037514209747,672C600.7443466186523,688.6666666666666,600.7443466186523,705.3333333333334,600.7443466186523,713.6666666666666L600.7443466186523,722" class="er relationshipLine"/><g transform="translate(290.96266174316406,744 )" id="entity-Nature-90a0701b-a310-4286-af97-6c2f4ee3092c"><rect height="68" width="100" y="0" x="0" class="er entityBox"/><text style="dominant-baseline: middle; text-anchor: middle; font-size: 12px;" transform="translate(50,12)" y="0" x="0" id="text-entity-Nature-90a0701b-a310-4286-af97-6c2f4ee3092c" class="er entityLabel">Nature</text><rect height="22" width="38.90184020996094" y="24" x="0" class="er attributeBoxOdd"/><text style="dominant-baseline: middle; font-size: 10.2px;" transform="translate(5,35)" y="0" x="0" id="text-entity-Nature-90a0701b-a310-4286-af97-6c2f4ee3092c-attr-1-type" class="er entityLabel">Int</text><rect height="22" width="36.904693603515625" y="24" x="38.90184020996094" class="er attributeBoxOdd"/><text style="dominant-baseline: middle; font-size: 10.2px;" transform="translate(43.90184020996094,35)" y="0" x="0" id="text-entity-Nature-90a0701b-a310-4286-af97-6c2f4ee3092c-attr-1-name" class="er entityLabel">id</text><rect height="22" width="24.193466186523438" y="24" x="75.80653381347656" class="er attributeBoxOdd"/><text style="dominant-baseline: middle; font-size: 10.2px;" transform="translate(80.80653381347656,35)" y="0" x="0" id="text-entity-Nature-90a0701b-a310-4286-af97-6c2f4ee3092c-attr-1-key" class="er entityLabel">PK</text><rect height="22" width="38.90184020996094" y="46" x="0" class="er attributeBoxEven"/><text style="dominant-baseline: middle; font-size: 10.2px;" transform="translate(5,57)" y="0" x="0" id="text-entity-Nature-90a0701b-a310-4286-af97-6c2f4ee3092c-attr-2-type" class="er entityLabel">String</text><rect height="22" width="36.904693603515625" y="46" x="38.90184020996094" class="er attributeBoxEven"/><text style="dominant-baseline: middle; font-size: 10.2px;" transform="translate(43.90184020996094,57)" y="0" x="0" id="text-entity-Nature-90a0701b-a310-4286-af97-6c2f4ee3092c-attr-2-name" class="er entityLabel">name</text><rect height="22" width="24.193466186523438" y="46" x="75.80653381347656" class="er attributeBoxEven"/><text style="dominant-baseline: middle; font-size: 10.2px;" transform="translate(80.80653381347656,57)" y="0" x="0" id="text-entity-Nature-90a0701b-a310-4286-af97-6c2f4ee3092c-attr-2-key" class="er entityLabel"/></g><g transform="translate(20,722 )" id="entity-Machine-2017629e-acaa-4752-a01d-a7792e213223"><rect height="112" width="120.96266174316406" y="0" x="0" class="er entityBox"/><text style="dominant-baseline: middle; text-anchor: middle; font-size: 12px;" transform="translate(60.48133087158203,12)" y="0" x="0" id="text-entity-Machine-2017629e-acaa-4752-a01d-a7792e213223" class="er entityLabel">Machine</text><rect height="22" width="37.39605712890625" y="24" x="0" class="er attributeBoxOdd"/><text style="dominant-baseline: middle; font-size: 10.2px;" transform="translate(5,35)" y="0" x="0" id="text-entity-Machine-2017629e-acaa-4752-a01d-a7792e213223-attr-1-type" class="er entityLabel">Int</text><rect height="22" width="60.87892150878906" y="24" x="37.39605712890625" class="er attributeBoxOdd"/><text style="dominant-baseline: middle; font-size: 10.2px;" transform="translate(42.39605712890625,35)" y="0" x="0" id="text-entity-Machine-2017629e-acaa-4752-a01d-a7792e213223-attr-1-name" class="er entityLabel">id</text><rect height="22" width="22.68768310546875" y="24" x="98.27497863769531" class="er attributeBoxOdd"/><text style="dominant-baseline: middle; font-size: 10.2px;" transform="translate(103.27497863769531,35)" y="0" x="0" id="text-entity-Machine-2017629e-acaa-4752-a01d-a7792e213223-attr-1-key" class="er entityLabel">PK</text><rect height="22" width="37.39605712890625" y="46" x="0" class="er attributeBoxEven"/><text style="dominant-baseline: middle; font-size: 10.2px;" transform="translate(5,57)" y="0" x="0" id="text-entity-Machine-2017629e-acaa-4752-a01d-a7792e213223-attr-2-type" class="er entityLabel">String</text><rect height="22" width="60.87892150878906" y="46" x="37.39605712890625" class="er attributeBoxEven"/><text style="dominant-baseline: middle; font-size: 10.2px;" transform="translate(42.39605712890625,57)" y="0" x="0" id="text-entity-Machine-2017629e-acaa-4752-a01d-a7792e213223-attr-2-name" class="er entityLabel">tag</text><rect height="22" width="22.68768310546875" y="46" x="98.27497863769531" class="er attributeBoxEven"/><text style="dominant-baseline: middle; font-size: 10.2px;" transform="translate(103.27497863769531,57)" y="0" x="0" id="text-entity-Machine-2017629e-acaa-4752-a01d-a7792e213223-attr-2-key" class="er entityLabel"/><rect height="22" width="37.39605712890625" y="68" x="0" class="er attributeBoxOdd"/><text style="dominant-baseline: middle; font-size: 10.2px;" transform="translate(5,79)" y="0" x="0" id="text-entity-Machine-2017629e-acaa-4752-a01d-a7792e213223-attr-3-type" class="er entityLabel">String</text><rect height="22" width="60.87892150878906" y="68" x="37.39605712890625" class="er attributeBoxOdd"/><text style="dominant-baseline: middle; font-size: 10.2px;" transform="translate(42.39605712890625,79)" y="0" x="0" id="text-entity-Machine-2017629e-acaa-4752-a01d-a7792e213223-attr-3-name" class="er entityLabel">ute</text><rect height="22" width="22.68768310546875" y="68" x="98.27497863769531" class="er attributeBoxOdd"/><text style="dominant-baseline: middle; font-size: 10.2px;" transform="translate(103.27497863769531,79)" y="0" x="0" id="text-entity-Machine-2017629e-acaa-4752-a01d-a7792e213223-attr-3-key" class="er entityLabel"/><rect height="22" width="37.39605712890625" y="90" x="0" class="er attributeBoxEven"/><text style="dominant-baseline: middle; font-size: 10.2px;" transform="translate(5,101)" y="0" x="0" id="text-entity-Machine-2017629e-acaa-4752-a01d-a7792e213223-attr-4-type" class="er entityLabel">String</text><rect height="22" width="60.87892150878906" y="90" x="37.39605712890625" class="er attributeBoxEven"/><text style="dominant-baseline: middle; font-size: 10.2px;" transform="translate(42.39605712890625,101)" y="0" x="0" id="text-entity-Machine-2017629e-acaa-4752-a01d-a7792e213223-attr-4-name" class="er entityLabel">technology</text><rect height="22" width="22.68768310546875" y="90" x="98.27497863769531" class="er attributeBoxEven"/><text style="dominant-baseline: middle; font-size: 10.2px;" transform="translate(103.27497863769531,101)" y="0" x="0" id="text-entity-Machine-2017629e-acaa-4752-a01d-a7792e213223-attr-4-key" class="er entityLabel"/></g><g transform="translate(538.9631195068359,722 )" id="entity-Worker-792d2e03-0bd1-47c6-9724-eb90678bd918"><rect height="112" width="123.56245422363281" y="0" x="0" class="er entityBox"/><text style="dominant-baseline: middle; text-anchor: middle; font-size: 12px;" transform="translate(61.781227111816406,12)" y="0" x="0" id="text-entity-Worker-792d2e03-0bd1-47c6-9724-eb90678bd918" class="er entityLabel">Worker</text><rect height="22" width="37.39605712890625" y="24" x="0" class="er attributeBoxOdd"/><text style="dominant-baseline: middle; font-size: 10.2px;" transform="translate(5,35)" y="0" x="0" id="text-entity-Worker-792d2e03-0bd1-47c6-9724-eb90678bd918-attr-1-type" class="er entityLabel">Int</text><rect height="22" width="63.47871398925781" y="24" x="37.39605712890625" class="er attributeBoxOdd"/><text style="dominant-baseline: middle; font-size: 10.2px;" transform="translate(42.39605712890625,35)" y="0" x="0" id="text-entity-Worker-792d2e03-0bd1-47c6-9724-eb90678bd918-attr-1-name" class="er entityLabel">id</text><rect height="22" width="22.68768310546875" y="24" x="100.87477111816406" class="er attributeBoxOdd"/><text style="dominant-baseline: middle; font-size: 10.2px;" transform="translate(105.87477111816406,35)" y="0" x="0" id="text-entity-Worker-792d2e03-0bd1-47c6-9724-eb90678bd918-attr-1-key" class="er entityLabel">PK</text><rect height="22" width="37.39605712890625" y="46" x="0" class="er attributeBoxEven"/><text style="dominant-baseline: middle; font-size: 10.2px;" transform="translate(5,57)" y="0" x="0" id="text-entity-Worker-792d2e03-0bd1-47c6-9724-eb90678bd918-attr-2-type" class="er entityLabel">Int</text><rect height="22" width="63.47871398925781" y="46" x="37.39605712890625" class="er attributeBoxEven"/><text style="dominant-baseline: middle; font-size: 10.2px;" transform="translate(42.39605712890625,57)" y="0" x="0" id="text-entity-Worker-792d2e03-0bd1-47c6-9724-eb90678bd918-attr-2-name" class="er entityLabel">registration</text><rect height="22" width="22.68768310546875" y="46" x="100.87477111816406" class="er attributeBoxEven"/><text style="dominant-baseline: middle; font-size: 10.2px;" transform="translate(105.87477111816406,57)" y="0" x="0" id="text-entity-Worker-792d2e03-0bd1-47c6-9724-eb90678bd918-attr-2-key" class="er entityLabel"/><rect height="22" width="37.39605712890625" y="68" x="0" class="er attributeBoxOdd"/><text style="dominant-baseline: middle; font-size: 10.2px;" transform="translate(5,79)" y="0" x="0" id="text-entity-Worker-792d2e03-0bd1-47c6-9724-eb90678bd918-attr-3-type" class="er entityLabel">String</text><rect height="22" width="63.47871398925781" y="68" x="37.39605712890625" class="er attributeBoxOdd"/><text style="dominant-baseline: middle; font-size: 10.2px;" transform="translate(42.39605712890625,79)" y="0" x="0" id="text-entity-Worker-792d2e03-0bd1-47c6-9724-eb90678bd918-attr-3-name" class="er entityLabel">name</text><rect height="22" width="22.68768310546875" y="68" x="100.87477111816406" class="er attributeBoxOdd"/><text style="dominant-baseline: middle; font-size: 10.2px;" transform="translate(105.87477111816406,79)" y="0" x="0" id="text-entity-Worker-792d2e03-0bd1-47c6-9724-eb90678bd918-attr-3-key" class="er entityLabel"/><rect height="22" width="37.39605712890625" y="90" x="0" class="er attributeBoxEven"/><text style="dominant-baseline: middle; font-size: 10.2px;" transform="translate(5,101)" y="0" x="0" id="text-entity-Worker-792d2e03-0bd1-47c6-9724-eb90678bd918-attr-4-type" class="er entityLabel">String</text><rect height="22" width="63.47871398925781" y="90" x="37.39605712890625" class="er attributeBoxEven"/><text style="dominant-baseline: middle; font-size: 10.2px;" transform="translate(42.39605712890625,101)" y="0" x="0" id="text-entity-Worker-792d2e03-0bd1-47c6-9724-eb90678bd918-attr-4-name" class="er entityLabel">class</text><rect height="22" width="22.68768310546875" y="90" x="100.87477111816406" class="er attributeBoxEven"/><text style="dominant-baseline: middle; font-size: 10.2px;" transform="translate(105.87477111816406,101)" y="0" x="0" id="text-entity-Worker-792d2e03-0bd1-47c6-9724-eb90678bd918-attr-4-key" class="er entityLabel"/></g><g transform="translate(214.71852111816406,20 )" id="entity-PreventiveActionTaken-36846c13-d2f6-4666-bca3-8080b30f379a"><rect height="90" width="152.48828125" y="0" x="0" class="er entityBox"/><text style="dominant-baseline: middle; text-anchor: middle; font-size: 12px;" transform="translate(76.244140625,12)" y="0" x="0" id="text-entity-PreventiveActionTaken-36846c13-d2f6-4666-bca3-8080b30f379a" class="er entityLabel">PreventiveActionTaken</text><rect height="22" width="59.9576670328776" y="24" x="0" class="er attributeBoxOdd"/><text style="dominant-baseline: middle; font-size: 10.2px;" transform="translate(5,35)" y="0" x="0" id="text-entity-PreventiveActionTaken-36846c13-d2f6-4666-bca3-8080b30f379a-attr-1-type" class="er entityLabel">Int</text><rect height="22" width="63.980814615885414" y="24" x="59.9576670328776" class="er attributeBoxOdd"/><text style="dominant-baseline: middle; font-size: 10.2px;" transform="translate(64.9576670328776,35)" y="0" x="0" id="text-entity-PreventiveActionTaken-36846c13-d2f6-4666-bca3-8080b30f379a-attr-1-name" class="er entityLabel">id</text><rect height="22" width="28.54979960123698" y="24" x="123.93848164876302" class="er attributeBoxOdd"/><text style="dominant-baseline: middle; font-size: 10.2px;" transform="translate(128.938481648763,35)" y="0" x="0" id="text-entity-PreventiveActionTaken-36846c13-d2f6-4666-bca3-8080b30f379a-attr-1-key" class="er entityLabel">PK</text><rect height="22" width="59.9576670328776" y="46" x="0" class="er attributeBoxEven"/><text style="dominant-baseline: middle; font-size: 10.2px;" transform="translate(5,57)" y="0" x="0" id="text-entity-PreventiveActionTaken-36846c13-d2f6-4666-bca3-8080b30f379a-attr-2-type" class="er entityLabel">DateTime</text><rect height="22" width="63.980814615885414" y="46" x="59.9576670328776" class="er attributeBoxEven"/><text style="dominant-baseline: middle; font-size: 10.2px;" transform="translate(64.9576670328776,57)" y="0" x="0" id="text-entity-PreventiveActionTaken-36846c13-d2f6-4666-bca3-8080b30f379a-attr-2-name" class="er entityLabel">date</text><rect height="22" width="28.54979960123698" y="46" x="123.93848164876302" class="er attributeBoxEven"/><text style="dominant-baseline: middle; font-size: 10.2px;" transform="translate(128.938481648763,57)" y="0" x="0" id="text-entity-PreventiveActionTaken-36846c13-d2f6-4666-bca3-8080b30f379a-attr-2-key" class="er entityLabel"/><rect height="22" width="59.9576670328776" y="68" x="0" class="er attributeBoxOdd"/><text style="dominant-baseline: middle; font-size: 10.2px;" transform="translate(5,79)" y="0" x="0" id="text-entity-PreventiveActionTaken-36846c13-d2f6-4666-bca3-8080b30f379a-attr-3-type" class="er entityLabel">String</text><rect height="22" width="63.980814615885414" y="68" x="59.9576670328776" class="er attributeBoxOdd"/><text style="dominant-baseline: middle; font-size: 10.2px;" transform="translate(64.9576670328776,79)" y="0" x="0" id="text-entity-PreventiveActionTaken-36846c13-d2f6-4666-bca3-8080b30f379a-attr-3-name" class="er entityLabel">weekCode</text><rect height="22" width="28.54979960123698" y="68" x="123.93848164876302" class="er attributeBoxOdd"/><text style="dominant-baseline: middle; font-size: 10.2px;" transform="translate(128.938481648763,79)" y="0" x="0" id="text-entity-PreventiveActionTaken-36846c13-d2f6-4666-bca3-8080b30f379a-attr-3-key" class="er entityLabel"/></g><g transform="translate(127.11144256591797,210 )" id="entity-PreventiveAction-71d0dc5f-5f5c-4ec3-a417-fc2d5f4b37e4"><rect height="156" width="144.81407165527344" y="0" x="0" class="er entityBox"/><text style="dominant-baseline: middle; text-anchor: middle; font-size: 12px;" transform="translate(72.40703582763672,12)" y="0" x="0" id="text-entity-PreventiveAction-71d0dc5f-5f5c-4ec3-a417-fc2d5f4b37e4" class="er entityLabel">PreventiveAction</text><rect height="22" width="46.649749755859375" y="24" x="0" class="er attributeBoxOdd"/><text style="dominant-baseline: middle; font-size: 10.2px;" transform="translate(5,35)" y="0" x="0" id="text-entity-PreventiveAction-71d0dc5f-5f5c-4ec3-a417-fc2d5f4b37e4-attr-1-type" class="er entityLabel">Int</text><rect height="22" width="75.47663879394531" y="24" x="46.649749755859375" class="er attributeBoxOdd"/><text style="dominant-baseline: middle; font-size: 10.2px;" transform="translate(51.649749755859375,35)" y="0" x="0" id="text-entity-PreventiveAction-71d0dc5f-5f5c-4ec3-a417-fc2d5f4b37e4-attr-1-name" class="er entityLabel">id</text><rect height="22" width="22.68768310546875" y="24" x="122.12638854980469" class="er attributeBoxOdd"/><text style="dominant-baseline: middle; font-size: 10.2px;" transform="translate(127.12638854980469,35)" y="0" x="0" id="text-entity-PreventiveAction-71d0dc5f-5f5c-4ec3-a417-fc2d5f4b37e4-attr-1-key" class="er entityLabel">PK</text><rect height="22" width="46.649749755859375" y="46" x="0" class="er attributeBoxEven"/><text style="dominant-baseline: middle; font-size: 10.2px;" transform="translate(5,57)" y="0" x="0" id="text-entity-PreventiveAction-71d0dc5f-5f5c-4ec3-a417-fc2d5f4b37e4-attr-2-type" class="er entityLabel">String</text><rect height="22" width="75.47663879394531" y="46" x="46.649749755859375" class="er attributeBoxEven"/><text style="dominant-baseline: middle; font-size: 10.2px;" transform="translate(51.649749755859375,57)" y="0" x="0" id="text-entity-PreventiveAction-71d0dc5f-5f5c-4ec3-a417-fc2d5f4b37e4-attr-2-name" class="er entityLabel">description</text><rect height="22" width="22.68768310546875" y="46" x="122.12638854980469" class="er attributeBoxEven"/><text style="dominant-baseline: middle; font-size: 10.2px;" transform="translate(127.12638854980469,57)" y="0" x="0" id="text-entity-PreventiveAction-71d0dc5f-5f5c-4ec3-a417-fc2d5f4b37e4-attr-2-key" class="er entityLabel"/><rect height="22" width="46.649749755859375" y="68" x="0" class="er attributeBoxOdd"/><text style="dominant-baseline: middle; font-size: 10.2px;" transform="translate(5,79)" y="0" x="0" id="text-entity-PreventiveAction-71d0dc5f-5f5c-4ec3-a417-fc2d5f4b37e4-attr-3-type" class="er entityLabel">String</text><rect height="22" width="75.47663879394531" y="68" x="46.649749755859375" class="er attributeBoxOdd"/><text style="dominant-baseline: middle; font-size: 10.2px;" transform="translate(51.649749755859375,79)" y="0" x="0" id="text-entity-PreventiveAction-71d0dc5f-5f5c-4ec3-a417-fc2d5f4b37e4-attr-3-name" class="er entityLabel">excution</text><rect height="22" width="22.68768310546875" y="68" x="122.12638854980469" class="er attributeBoxOdd"/><text style="dominant-baseline: middle; font-size: 10.2px;" transform="translate(127.12638854980469,79)" y="0" x="0" id="text-entity-PreventiveAction-71d0dc5f-5f5c-4ec3-a417-fc2d5f4b37e4-attr-3-key" class="er entityLabel"/><rect height="22" width="46.649749755859375" y="90" x="0" class="er attributeBoxEven"/><text style="dominant-baseline: middle; font-size: 10.2px;" transform="translate(5,101)" y="0" x="0" id="text-entity-PreventiveAction-71d0dc5f-5f5c-4ec3-a417-fc2d5f4b37e4-attr-4-type" class="er entityLabel">Int</text><rect height="22" width="75.47663879394531" y="90" x="46.649749755859375" class="er attributeBoxEven"/><text style="dominant-baseline: middle; font-size: 10.2px;" transform="translate(51.649749755859375,101)" y="0" x="0" id="text-entity-PreventiveAction-71d0dc5f-5f5c-4ec3-a417-fc2d5f4b37e4-attr-4-name" class="er entityLabel">frequency</text><rect height="22" width="22.68768310546875" y="90" x="122.12638854980469" class="er attributeBoxEven"/><text style="dominant-baseline: middle; font-size: 10.2px;" transform="translate(127.12638854980469,101)" y="0" x="0" id="text-entity-PreventiveAction-71d0dc5f-5f5c-4ec3-a417-fc2d5f4b37e4-attr-4-key" class="er entityLabel"/><rect height="22" width="46.649749755859375" y="112" x="0" class="er attributeBoxOdd"/><text style="dominant-baseline: middle; font-size: 10.2px;" transform="translate(5,123)" y="0" x="0" id="text-entity-PreventiveAction-71d0dc5f-5f5c-4ec3-a417-fc2d5f4b37e4-attr-5-type" class="er entityLabel">String</text><rect height="22" width="75.47663879394531" y="112" x="46.649749755859375" class="er attributeBoxOdd"/><text style="dominant-baseline: middle; font-size: 10.2px;" transform="translate(51.649749755859375,123)" y="0" x="0" id="text-entity-PreventiveAction-71d0dc5f-5f5c-4ec3-a417-fc2d5f4b37e4-attr-5-name" class="er entityLabel">nextExecution</text><rect height="22" width="22.68768310546875" y="112" x="122.12638854980469" class="er attributeBoxOdd"/><text style="dominant-baseline: middle; font-size: 10.2px;" transform="translate(127.12638854980469,123)" y="0" x="0" id="text-entity-PreventiveAction-71d0dc5f-5f5c-4ec3-a417-fc2d5f4b37e4-attr-5-key" class="er entityLabel"/><rect height="22" width="46.649749755859375" y="134" x="0" class="er attributeBoxEven"/><text style="dominant-baseline: middle; font-size: 10.2px;" transform="translate(5,145)" y="0" x="0" id="text-entity-PreventiveAction-71d0dc5f-5f5c-4ec3-a417-fc2d5f4b37e4-attr-6-type" class="er entityLabel">Boolean</text><rect height="22" width="75.47663879394531" y="134" x="46.649749755859375" class="er attributeBoxEven"/><text style="dominant-baseline: middle; font-size: 10.2px;" transform="translate(51.649749755859375,145)" y="0" x="0" id="text-entity-PreventiveAction-71d0dc5f-5f5c-4ec3-a417-fc2d5f4b37e4-attr-6-name" class="er entityLabel">ignore</text><rect height="22" width="22.68768310546875" y="134" x="122.12638854980469" class="er attributeBoxEven"/><text style="dominant-baseline: middle; font-size: 10.2px;" transform="translate(127.12638854980469,145)" y="0" x="0" id="text-entity-PreventiveAction-71d0dc5f-5f5c-4ec3-a417-fc2d5f4b37e4-attr-6-key" class="er entityLabel"/></g><g transform="translate(390.96266174316406,466 )" id="entity-PreventiveOS-373b54f7-c3af-4637-baef-fb2e286f10de"><rect height="156" width="215.5642852783203" y="0" x="0" class="er entityBox"/><text style="dominant-baseline: middle; text-anchor: middle; font-size: 12px;" transform="translate(107.78214263916016,12)" y="0" x="0" id="text-entity-PreventiveOS-373b54f7-c3af-4637-baef-fb2e286f10de" class="er entityLabel">PreventiveOS</text><rect height="22" width="54.095550537109375" y="24" x="0" class="er attributeBoxOdd"/><text style="dominant-baseline: middle; font-size: 10.2px;" transform="translate(5,35)" y="0" x="0" id="text-entity-PreventiveOS-373b54f7-c3af-4637-baef-fb2e286f10de-attr-1-type" class="er entityLabel">Int</text><rect height="22" width="91.56851196289062" y="24" x="54.095550537109375" class="er attributeBoxOdd"/><text style="dominant-baseline: middle; font-size: 10.2px;" transform="translate(59.095550537109375,35)" y="0" x="0" id="text-entity-PreventiveOS-373b54f7-c3af-4637-baef-fb2e286f10de-attr-1-name" class="er entityLabel">id</text><rect height="22" width="22.68768310546875" y="24" x="145.6640625" class="er attributeBoxOdd"/><text style="dominant-baseline: middle; font-size: 10.2px;" transform="translate(150.6640625,35)" y="0" x="0" id="text-entity-PreventiveOS-373b54f7-c3af-4637-baef-fb2e286f10de-attr-1-key" class="er entityLabel">PK</text><rect height="22" width="47.21253967285156" y="24" x="168.35174560546875" class="er attributeBoxOdd"/><text style="dominant-baseline: middle; font-size: 10.2px;" transform="translate(173.35174560546875,35)" y="0" x="0" id="text-entity-PreventiveOS-373b54f7-c3af-4637-baef-fb2e286f10de-attr-1-comment" class="er entityLabel"/><rect height="22" width="54.095550537109375" y="46" x="0" class="er attributeBoxEven"/><text style="dominant-baseline: middle; font-size: 10.2px;" transform="translate(5,57)" y="0" x="0" id="text-entity-PreventiveOS-373b54f7-c3af-4637-baef-fb2e286f10de-attr-2-type" class="er entityLabel">String</text><rect height="22" width="91.56851196289062" y="46" x="54.095550537109375" class="er attributeBoxEven"/><text style="dominant-baseline: middle; font-size: 10.2px;" transform="translate(59.095550537109375,57)" y="0" x="0" id="text-entity-PreventiveOS-373b54f7-c3af-4637-baef-fb2e286f10de-attr-2-name" class="er entityLabel">weekCode</text><rect height="22" width="22.68768310546875" y="46" x="145.6640625" class="er attributeBoxEven"/><text style="dominant-baseline: middle; font-size: 10.2px;" transform="translate(150.6640625,57)" y="0" x="0" id="text-entity-PreventiveOS-373b54f7-c3af-4637-baef-fb2e286f10de-attr-2-key" class="er entityLabel"/><rect height="22" width="47.21253967285156" y="46" x="168.35174560546875" class="er attributeBoxEven"/><text style="dominant-baseline: middle; font-size: 10.2px;" transform="translate(173.35174560546875,57)" y="0" x="0" id="text-entity-PreventiveOS-373b54f7-c3af-4637-baef-fb2e286f10de-attr-2-comment" class="er entityLabel"/><rect height="22" width="54.095550537109375" y="68" x="0" class="er attributeBoxOdd"/><text style="dominant-baseline: middle; font-size: 10.2px;" transform="translate(5,79)" y="0" x="0" id="text-entity-PreventiveOS-373b54f7-c3af-4637-baef-fb2e286f10de-attr-3-type" class="er entityLabel">DateTime</text><rect height="22" width="91.56851196289062" y="68" x="54.095550537109375" class="er attributeBoxOdd"/><text style="dominant-baseline: middle; font-size: 10.2px;" transform="translate(59.095550537109375,79)" y="0" x="0" id="text-entity-PreventiveOS-373b54f7-c3af-4637-baef-fb2e286f10de-attr-3-name" class="er entityLabel">date</text><rect height="22" width="22.68768310546875" y="68" x="145.6640625" class="er attributeBoxOdd"/><text style="dominant-baseline: middle; font-size: 10.2px;" transform="translate(150.6640625,79)" y="0" x="0" id="text-entity-PreventiveOS-373b54f7-c3af-4637-baef-fb2e286f10de-attr-3-key" class="er entityLabel"/><rect height="22" width="47.21253967285156" y="68" x="168.35174560546875" class="er attributeBoxOdd"/><text style="dominant-baseline: middle; font-size: 10.2px;" transform="translate(173.35174560546875,79)" y="0" x="0" id="text-entity-PreventiveOS-373b54f7-c3af-4637-baef-fb2e286f10de-attr-3-comment" class="er entityLabel">nullable</text><rect height="22" width="54.095550537109375" y="90" x="0" class="er attributeBoxEven"/><text style="dominant-baseline: middle; font-size: 10.2px;" transform="translate(5,101)" y="0" x="0" id="text-entity-PreventiveOS-373b54f7-c3af-4637-baef-fb2e286f10de-attr-4-type" class="er entityLabel">String</text><rect height="22" width="91.56851196289062" y="90" x="54.095550537109375" class="er attributeBoxEven"/><text style="dominant-baseline: middle; font-size: 10.2px;" transform="translate(59.095550537109375,101)" y="0" x="0" id="text-entity-PreventiveOS-373b54f7-c3af-4637-baef-fb2e286f10de-attr-4-name" class="er entityLabel">actionsUniqueKey</text><rect height="22" width="22.68768310546875" y="90" x="145.6640625" class="er attributeBoxEven"/><text style="dominant-baseline: middle; font-size: 10.2px;" transform="translate(150.6640625,101)" y="0" x="0" id="text-entity-PreventiveOS-373b54f7-c3af-4637-baef-fb2e286f10de-attr-4-key" class="er entityLabel"/><rect height="22" width="47.21253967285156" y="90" x="168.35174560546875" class="er attributeBoxEven"/><text style="dominant-baseline: middle; font-size: 10.2px;" transform="translate(173.35174560546875,101)" y="0" x="0" id="text-entity-PreventiveOS-373b54f7-c3af-4637-baef-fb2e286f10de-attr-4-comment" class="er entityLabel"/><rect height="22" width="54.095550537109375" y="112" x="0" class="er attributeBoxOdd"/><text style="dominant-baseline: middle; font-size: 10.2px;" transform="translate(5,123)" y="0" x="0" id="text-entity-PreventiveOS-373b54f7-c3af-4637-baef-fb2e286f10de-attr-5-type" class="er entityLabel">Int</text><rect height="22" width="91.56851196289062" y="112" x="54.095550537109375" class="er attributeBoxOdd"/><text style="dominant-baseline: middle; font-size: 10.2px;" transform="translate(59.095550537109375,123)" y="0" x="0" id="text-entity-PreventiveOS-373b54f7-c3af-4637-baef-fb2e286f10de-attr-5-name" class="er entityLabel">duration</text><rect height="22" width="22.68768310546875" y="112" x="145.6640625" class="er attributeBoxOdd"/><text style="dominant-baseline: middle; font-size: 10.2px;" transform="translate(150.6640625,123)" y="0" x="0" id="text-entity-PreventiveOS-373b54f7-c3af-4637-baef-fb2e286f10de-attr-5-key" class="er entityLabel"/><rect height="22" width="47.21253967285156" y="112" x="168.35174560546875" class="er attributeBoxOdd"/><text style="dominant-baseline: middle; font-size: 10.2px;" transform="translate(173.35174560546875,123)" y="0" x="0" id="text-entity-PreventiveOS-373b54f7-c3af-4637-baef-fb2e286f10de-attr-5-comment" class="er entityLabel">nullable</text><rect height="22" width="54.095550537109375" y="134" x="0" class="er attributeBoxEven"/><text style="dominant-baseline: middle; font-size: 10.2px;" transform="translate(5,145)" y="0" x="0" id="text-entity-PreventiveOS-373b54f7-c3af-4637-baef-fb2e286f10de-attr-6-type" class="er entityLabel">Boolean</text><rect height="22" width="91.56851196289062" y="134" x="54.095550537109375" class="er attributeBoxEven"/><text style="dominant-baseline: middle; font-size: 10.2px;" transform="translate(59.095550537109375,145)" y="0" x="0" id="text-entity-PreventiveOS-373b54f7-c3af-4637-baef-fb2e286f10de-attr-6-name" class="er entityLabel">concluded</text><rect height="22" width="22.68768310546875" y="134" x="145.6640625" class="er attributeBoxEven"/><text style="dominant-baseline: middle; font-size: 10.2px;" transform="translate(150.6640625,145)" y="0" x="0" id="text-entity-PreventiveOS-373b54f7-c3af-4637-baef-fb2e286f10de-attr-6-key" class="er entityLabel"/><rect height="22" width="47.21253967285156" y="134" x="168.35174560546875" class="er attributeBoxEven"/><text style="dominant-baseline: middle; font-size: 10.2px;" transform="translate(173.35174560546875,145)" y="0" x="0" id="text-entity-PreventiveOS-373b54f7-c3af-4637-baef-fb2e286f10de-attr-6-comment" class="er entityLabel">nullable</text></g><rect height="14" width="33.865234375" y="147.17344665527344" x="193.72067260742188" class="er relationshipLabelBox"/><text style="text-anchor: middle; dominant-baseline: middle; font-size: 12px;" y="154.17344665527344" x="210.65328979492188" id="rel1" class="er relationshipLabel">action</text><rect height="14" width="11.439453125" y="253.52194213867188" x="469.9149475097656" class="er relationshipLabelBox"/><text style="text-anchor: middle; dominant-baseline: middle; font-size: 12px;" y="260.5219421386719" x="475.6346740722656" id="rel2" class="er relationshipLabel">os</text><rect height="14" width="45.7421875" y="530.6658935546875" x="57.61174011230469" class="er relationshipLabelBox"/><text style="text-anchor: middle; dominant-baseline: middle; font-size: 12px;" y="537.6658935546875" x="80.48283386230469" id="rel3" class="er relationshipLabel">machine</text><rect height="14" width="71.00390625" y="361.00433349609375" x="408.4444885253906" class="er relationshipLabelBox"/><text style="text-anchor: middle; dominant-baseline: middle; font-size: 12px;" y="368.00433349609375" x="443.9464416503906" id="rel4" class="er relationshipLabel">PreventiveOS</text><rect height="14" width="35.83984375" y="547.8206787109375" x="267.807373046875" class="er relationshipLabelBox"/><text style="text-anchor: middle; dominant-baseline: middle; font-size: 12px;" y="554.8206787109375" x="285.727294921875" id="rel5" class="er relationshipLabel">nature</text><rect height="14" width="35.83984375" y="680.861328125" x="408.95660400390625" class="er relationshipLabelBox"/><text style="text-anchor: middle; dominant-baseline: middle; font-size: 12px;" y="687.861328125" x="426.87652587890625" id="rel6" class="er relationshipLabel">nature</text><rect height="14" width="45.7421875" y="637.33935546875" x="234.42288208007812" class="er relationshipLabelBox"/><text style="text-anchor: middle; dominant-baseline: middle; font-size: 12px;" y="644.33935546875" x="257.2939758300781" id="rel7" class="er relationshipLabel">machine</text><rect height="14" width="61.251953125" y="660.6641845703125" x="561.6063842773438" class="er relationshipLabelBox"/><text style="text-anchor: middle; dominant-baseline: middle; font-size: 12px;" y="667.6641845703125" x="592.2323608398438" id="rel8" class="er relationshipLabel">responsible</text></svg>